<svg version="1.1" xmlns="http://www.w3.org/2000/svg" xmlns:xlink="http://www.w3.org/1999/xlink" width="1560" height="804"><defs/><g><path fill="none" stroke="#02063B" paint-order="fill stroke markers" d=" M 20 428.51468407877167 L 21 429.8045526408839 L 22 431.08920369167237 L 23 432.3683961669671 L 24 433.6418900268973 L 25 434.9094463009345 L 26 436.17082713273567 L 27 437.4257958247765 L 28 438.6741168827678 L 29 439.91555605984576 L 30 441.1498804005282 L 31 442.376858284429 L 32 443.5962594697208 L 33 444.80785513634044 L 34 446.0114179289268 L 35 447.2067219994835 L 36 448.3935430497598 L 37 449.5716583733396 L 38 450.7408468974323 L 39 451.90088922435723 L 40 453.0515676727132 L 41 454.1926663182266 L 42 455.3239710342692 L 43 456.44526953203916 L 44 457.5563514003968 L 45 458.6570081453482 L 46 459.74703322916895 L 47 460.8262221091609 L 48 461.8943722760344 L 49 462.9512832919094 L 50 463.9967568279271 L 51 465.03059670146644 L 52 466.0526089129578 L 53 467.06260168228675 L 54 468.0603854847817 L 55 469.04577308677773 L 56 470.0185795807514 L 57 470.97862242001816 L 58 471.9257214529875 L 59 472.85969895696786 L 60 473.78037967151664 L 61 474.6875908313276 L 62 475.58116219865 L 63 476.460926095234 L 64 477.326717433795 L 65 478.1783737489925 L 66 479.0157352279164 L 67 479.8386447400763 L 68 480.6469478668862 L 69 481.4404929306417 L 70 482.2191310229821 L 71 482.98271603283274 L 72 483.73110467382304 L 73 484.4641565111739 L 74 485.1817339880501 L 75 485.88370245137315 L 76 486.5699301770886 L 77 487.2402883948841 L 78 487.89465131235295 L 79 488.5328961385991 L 80 489.1549031072789 L 81 489.76055549907505 L 82 490.34973966359894 L 83 490.9223450407171 L 84 491.47826418129785 L 85 492.01739276737396 L 86 492.5396296317179 L 87 493.04487677682584 L 88 493.5330393933069 L 89 494.004025877674 L 90 494.4577478495331 L 91 494.89412016816806 L 92 495.313060948517 L 93 495.71449157653797 L 94 496.0983367239611 L 95 496.4645243624236 L 96 496.8129857769861 L 97 497.14365557902676 L 98 497.45647171851164 L 99 497.7513754956382 L 100 498.0283115718503 L 101 498.28722798022244 L 102 498.52807613521156 L 103 498.7508108417738 L 104 498.9553903038454 L 105 499.1417761321858 L 106 499.3099333515813 L 107 499.4598304074083 L 108 499.59143917155404 L 109 499.70473494769556 L 110 499.7996964759333 L 111 499.87630593678074 L 112 499.9345489545084 L 113 499.9744145998411 L 114 499.99589539200923 L 115 499.99898730015207 L 116 499.9836897440745 L 117 499.95000559435584 L 118 499.89794117181106 L 119 499.8275062463046 L 120 499.73871403491756 L 121 499.63158119946684 L 122 499.506127843379 L 123 499.36237750791776 L 124 499.2003571677665 L 125 499.0200972259664 L 126 498.8216315082114 L 127 498.6049972565007 L 128 498.3702351221507 L 129 498.11738915816613 L 130 497.84650681097423 L 131 497.5576389115209 L 132 497.2508396657327 L 133 496.92616664434485 L 134 496.5836807720983 L 135 496.22344631630705 L 136 495.84553087479856 L 137 495.45000536322914 L 138 495.0369440017762 L 139 494.6064243012116 L 140 494.15852704835606 L 141 493.69333629092 L 142 493.2109393217319 L 143 492.7114266623579 L 144 492.19489204611534 L 145 491.6614324004838 L 146 491.11114782891684 L 147 490.5441415920573 L 148 489.96052008836097 L 149 489.3603928341305 L 150 488.7438724429651 L 151 488.11107460462824 L 152 487.462118063339 L 153 486.7971245954894 L 154 486.1162189867932 L 155 485.4195290088701 L 156 484.70718539526916 L 157 483.97932181693704 L 158 483.2360748571343 L 159 482.4775839858062 L 160 481.70399153341054 L 161 480.9154426642099 L 162 480.1120853490314 L 163 479.29407033750044 L 164 478.46155112975197 L 165 477.61468394762665 L 166 476.75362770535594 L 167 475.8785439797418 L 168 474.98959697983673 L 169 474.08695351613034 L 170 473.1707829692473 L 171 472.24125725816293 L 172 471.2985508079431 L 173 470.3428405170132 L 174 469.37430572396306 L 175 468.3931281738946 L 176 467.3994919843169 L 177 466.39358361059726 L 178 465.3755918109724 L 179 464.34570761112826 L 180 463.30412426835426 L 181 462.25103723527843 L 182 461.1866441231909 L 183 460.11114466496235 L 184 459.024740677564 L 185 457.927636024197 L 186 456.82003657603735 L 187 455.7021501736046 L 188 454.5741865877602 L 189 453.4363574803445 L 190 452.2888763644585 L 191 451.1319585643978 L 192 449.9658211752475 L 193 448.7906830221445 L 194 447.60676461921446 L 195 446.4142881281932 L 196 445.21347731673745 L 197 444.00455751643557 L 198 442.7877555805237 L 199 441.56329984131713 L 200 440.33142006736364 L 201 439.0923474203279 L 202 437.8463144116136 L 203 436.5935548587333 L 204 435.33430384143213 L 205 434.06879765757583 L 206 432.797273778809 L 207 431.51997080599386 L 208 430.2371284244371 L 209 428.94898735891275 L 210 427.6557893284904 L 211 426.3577770011769 L 212 425.05519394837944 L 213 423.74828459919985 L 214 422.43729419456747 L 215 421.12246874121973 L 216 419.8040549655392 L 217 418.48230026725537 L 218 417.15745267302043 L 219 415.829760789867 L 220 414.49947375855714 L 221 413.16684120683135 L 222 411.8321132025658 L 223 410.49554020684747 L 224 409.15737302697516 L 225 407.8178627693954 L 226 406.4772607925828 L 227 405.1358186598724 L 228 403.7937880922544 L 229 402.45142092113815 L 230 401.1089690410968 L 231 399.766684362599 L 232 398.42481876473806 L 233 397.0836240479669 L 234 395.7433518868482 L 235 394.40425378282725 L 236 393.0665810170383 L 237 391.7305846031512 L 238 390.3965152402696 L 239 389.06462326588655 L 240 387.73515860890944 L 241 386.4083707427603 L 242 385.08450863856314 L 243 383.7638207184237 L 244 382.44655480881363 L 245 381.13295809406605 L 246 379.82327706999126 L 247 378.5177574976221 L 248 377.2166443570968 L 249 375.92018180168895 L 250 374.62861311199174 L 251 373.342180650267 L 252 372.0611258149656 L 253 370.7856889954293 L 254 369.5161095267821 L 255 368.25262564501844 L 256 366.9954744422991 L 257 365.7448918224603 L 258 364.50111245674697 L 259 363.2643697397764 L 260 362.0348957457421 L 261 360.8129211848652 L 262 359.59867536010165 L 263 358.39238612411356 L 264 357.19427983651303 L 265 356.00458132138556 L 266 354.8235138251022 L 267 353.65129897442733 L 268 352.48815673493044 L 269 351.33430536970985 L 270 350.18996139843557 L 271 349.0553395567197 L 272 347.9306527558211 L 273 346.816112042693 L 274 345.71192656037994 L 275 344.6183035087722 L 276 343.5354481057249 L 277 342.4635635485491 L 278 341.40285097588134 L 279 340.3535094299409 L 280 339.31573581917905 L 281 338.2897248813293 L 282 337.2756691468652 L 283 336.2737589028721 L 284 335.2841821573394 L 285 334.3071246038816 L 286 333.3427695868925 L 287 332.3912980671407 L 288 331.452888587813 L 289 330.5277172410099 L 290 329.6159576347029 L 291 328.71778086015644 L 292 327.83335545982305 L 293 326.96284739571615 L 294 326.1064200182677 L 295 325.26423403567526 L 296 324.4364474837453 L 297 323.623215696238 L 298 322.82469127571846 L 299 322.0410240649216 L 300 321.2723611186336 L 301 320.5188466760976 L 302 319.780622133947 L 303 319.0578260196724 L 304 318.3505939656274 L 305 317.6590586835767 L 306 316.9833499397932 L 307 316.32359453070717 L 308 315.6799162591133 L 309 315.0524359109387 L 310 314.4412712325777 L 311 313.8465369087971 L 312 313.2683445412149 L 313 312.7068026273592 L 314 312.16201654030783 L 315 311.6340885089158 L 316 311.1231175986318 L 317 310.6291996929085 L 318 310.1524274752104 L 319 309.69289041162165 L 320 309.25067473405767 L 321 308.8258634240839 L 322 308.4185361973444 L 323 308.0287694886031 L 324 307.65663643740095 L 325 307.30220687433126 L 326 306.96554730793616 L 327 306.6467209122261 L 328 306.3457875148254 L 329 306.0628035857456 L 330 305.7978222267889 L 331 305.55089316158364 L 332 305.3220627262536 L 333 305.1113738607231 L 334 304.91886610065956 L 335 304.74457557005417 L 336 304.58853497444363 L 337 304.45077359477295 L 338 304.3313172819007 L 339 304.2301884517481 L 340 304.1474060810931 L 341 304.0829857040088 L 342 304.0369394089489 L 343 304.0092758364792 L 344 304.0000001776562 L 345 304.00911417305286 L 346 304.0366161124322 L 347 304.0825008350683 L 348 304.14675973071417 L 349 304.22938074121805 L 350 304.330348362786 L 351 304.44964364889097 L 352 304.5872442138281 L 353 304.7431242369157 L 354 304.9172544673402 L 355 305.1096022296451 L 356 305.32013142986256 L 357 305.5488025622865 L 358 305.7955727168857 L 359 306.06039558735574 L 360 306.34322147980873 L 361 306.64399732209785 L 362 306.96266667377677 L 363 307.2991697366904 L 364 307.65344336619603 L 365 308.0254210830124 L 366 308.41503308569474 L 367 308.8222062637326 L 368 309.24686421126904 L 369 309.6889272414386 L 370 310.14831240131997 L 371 310.62493348750235 L 372 311.1187010622613 L 373 311.6295224703421 L 374 312.15730185634584 L 375 312.7019401827171 L 376 313.26333524832836 L 377 313.8413817076574 L 378 314.43597109055605 L 379 315.0469918226042 L 380 315.6743292460466 L 381 316.31786564130874 L 382 316.9774802490863 L 383 317.65304929300623 L 384 318.3444460028526 L 385 319.0515406383557 L 386 319.7742005135371 L 387 320.51229002160875 L 388 321.26567066041883 L 389 322.0342010584423 L 390 322.8177370013086 L 391 323.61613145886395 L 392 324.429234612761 L 393 325.2568938845724 L 394 326.0989539644223 L 395 326.9552568401297 L 396 327.8256418268598 L 397 328.709945597276 L 398 329.60800221218864 L 399 330.51964315169323 L 400 331.4446973467929 L 401 332.38299121149987 L 402 333.33434867540836 L 403 334.29859121673445 L 404 335.2755378958152 L 405 336.26500538906254 L 406 337.26680802336307 L 407 338.28075781092025 L 408 339.3066644845297 L 409 340.34433553328296 L 410 341.3935762386923 L 411 342.4541897112289 L 412 343.5259769272699 L 413 344.60873676644445 L 414 345.7022660493742 L 415 346.8063595757998 L 416 347.9208101630862 L 417 349.04540868510105 L 418 350.1799441114566 L 419 351.3242035471098 L 420 352.47797227231155 L 421 353.64103378289934 L 422 354.8131698309234 L 423 355.9941604656016 L 424 357.1837840745928 L 425 358.3818174255818 L 426 359.58803570816974 L 427 360.8022125760588 L 428 362.02412018952674 L 429 363.25352925818004 L 430 364.490209083981 L 431 365.73392760453754 L 432 366.98445143664986 L 433 368.2415459201047 L 434 369.50497516170896 L 435 370.7745020795553 L 436 372.04988844751006 L 437 373.3308949399169 L 438 374.6172811765053 L 439 375.90880576749845 L 440 377.2052263589099 L 441 378.5062996780207 L 442 379.81178157903 L 443 381.1214270888683 L 444 382.4349904531673 L 445 383.75222518237456 L 446 385.0728840980083 L 447 386.3967193790392 L 448 387.723482608395 L 449 389.052924819575 L 450 390.38479654336885 L 451 391.7188478546693 L 452 393.05482841937044 L 453 394.39248754134314 L 454 395.7315742094774 L 455 397.0718371447851 L 456 398.41302484755215 L 457 399.75488564453207 L 458 401.0971677361728 L 459 402.4396192438664 L 460 403.78198825721415 L 461 405.12402288129715 L 462 406.4654712839449 L 463 407.80608174299067 L 464 409.14560269350767 L 465 410.4837827750149 L 466 411.8203708786446 L 467 413.1551161942632 L 468 414.48776825753515 L 469 415.818076996923 L 470 417.1457927806127 L 471 418.4706664633572 L 472 419.79244943322857 L 473 421.11089365826933 L 474 422.4257517330363 L 475 423.7367769250253 L 476 425.0437232209713 L 477 426.3463453730117 L 478 427.6443989447079 L 479 428.9376403569131 L 480 430.2258269334799 L 481 431.50871694679876 L 482 432.78606966315726 L 483 434.05764538791465 L 484 435.3232055104796 L 485 436.5825125490861 L 486 437.835330195356 L 487 439.0814233586429 L 488 440.3205582101464 L 489 441.55250222678995 L 490 442.7770242348541 L 491 443.9938944533554 L 492 445.20288453716563 L 493 446.4037676198597 L 494 447.59631835628795 L 495 448.7803129648612 L 496 449.95552926954383 L 497 451.1217467415451 L 498 452.2787465407005 L 499 453.4263115565381 L 500 454.5642264490181 L 501 455.6922776889423 L 502 456.810253598022 L 503 457.9179443885997 L 504 459.0151422030158 L 505 460.1016411526124 L 506 461.177237356369 L 507 462.24172897915986 L 508 463.2949162696291 L 509 464.336601597673 L 510 465.3665894915263 L 511 466.38468667444135 L 512 467.390702100957 L 513 468.38444699274834 L 514 469.36573487405 L 515 470.33438160664934 L 516 471.290205424439 L 517 472.2330269675259 L 518 473.16266931588746 L 519 474.0789580225711 L 520 474.98172114642864 L 521 475.8707892843813 L 522 476.74599560320814 L 523 477.6071758708518 L 524 478.4541684872372 L 525 479.2868145145952 L 526 480.10495770728755 L 527 480.9084445411259 L 528 481.697124242181 L 529 482.4708488150752 L 530 483.22947307075344 L 531 483.9728546537284 L 532 484.700854068793 L 533 485.4133347071968 L 534 486.1101628722805 L 535 486.79120780456446 L 536 487.4563417062849 L 537 488.10543976537565 L 538 488.7383801788889 L 539 489.3550441758516 L 540 489.9553160395526 L 541 490.5390831292567 L 542 491.10623590134225 L 543 491.65666792985616 L 544 492.19027592648524 L 545 492.7069597599382 L 546 493.20662247473456 L 547 493.6891703093994 L 548 494.15451271405675 L 549 494.6025623674215 L 550 495.0332351931854 L 551 495.4464503757938 L 552 495.8421303756105 L 553 496.2202009434683 L 554 496.58059113460155 L 555 496.9232333219591 L 556 497.24806320889456 L 557 497.5550198412312 L 558 497.8440456187003 L 559 498.11508630574957 L 560 498.3680910417207 L 561 498.60301235039293 L 562 498.8198061488925 L 563 499.0184317559643 L 564 499.1988518996058 L 565 499.3610327240614 L 566 499.50494379617487 L 567 499.630558111101 L 568 499.737852097372 L 569 499.82680562132157 L 570 499.8974019908624 L 571 499.94962795861875 L 572 499.9834737244121 L 573 499.9989329371002 L 574 499.9960026957693 L 575 499.9746835502775 L 576 499.9349795011527 L 577 499.87689799884106 L 578 499.8004499423095 L 579 499.70564967700005 L 580 499.5925149921383 L 581 499.461067117395 L 582 499.31133071890247 L 583 499.1433338946261 L 584 498.9571081690914 L 585 498.75268848746896 L 586 498.5301132090165 L 587 498.2894240998812 L 588 498.0306663252621 L 589 497.7538884409346 L 590 497.4591423841397 L 591 497.1464834638373 L 592 496.8159703503278 L 593 496.4676650642427 L 594 496.10163296490634 L 595 495.7179427380713 L 596 495.31666638302954 L 597 494.8978791991018 L 598 494.4616597715076 L 599 494.0080899566189 L 600 493.5372548665997 L 601 493.0492428534349 L 602 492.54414549235105 L 603 492.02205756463206 L 604 491.48307703983386 L 605 490.9273050574003 L 606 490.35484590768453 L 607 489.7658070123788 L 608 489.16029890435675 L 609 488.5384352069322 L 610 487.9003326125376 L 611 487.2461108608272 L 612 486.5758927162071 L 613 485.88980394479927 L 614 485.1879732908414 L 615 484.47053245252823 L 616 483.73761605729806 L 617 482.98936163657027 L 618 482.2259095999377 L 619 481.44740320881857 L 620 480.6539885495739 L 621 479.845814506094 L 622 479.0230327318609 L 623 478.1857976214904 L 624 477.3342662817603 L 625 476.4685985021288 L 626 475.58895672475086 L 627 474.6955060139952 L 628 473.7884140254706 L 629 472.8678509745655 L 630 471.9339896045065 L 631 470.98700515394387 L 632 470.0270753240674 L 633 469.05438024526205 L 634 468.069102443305 L 635 467.0714268051159 L 636 466.0615405440625 L 637 465.0396331648302 L 638 464.0058964278619 L 639 462.96052431337364 L 640 461.90371298495467 L 641 460.8356607527575 L 642 459.75656803628476 L 643 458.66663732678126 L 644 457.56607314923565 L 645 456.4550820240022 L 646 455.33387242804673 L 647 454.2026547558268 L 648 453.0616412798105 L 649 451.9110461106439 L 650 450.7510851569734 L 651 449.5819760849303 L 652 448.40393827728656 L 653 447.21719279228677 L 654 446.0219623221671 L 655 444.81847115136725 L 656 443.6069451144439 L 657 442.3876115536921 L 658 441.16069927648556 L 659 439.92643851234016 L 660 438.68506086971206 L 661 437.43679929253665 L 662 436.18188801651615 L 663 434.9205625251657 L 664 433.6530595056247 L 665 432.3796168042434 L 666 431.1004733819503 L 667 429.8158692694112 L 668 428.5260455219884 L 669 427.2312441745057 L 670 425.93170819583196 L 671 424.6276814432867 L 672 423.31940861688133 L 673 422.00713521340083 L 674 420.6911074803372 L 675 419.37157236968 L 676 418.04877749157674 L 677 416.72297106786885 L 678 415.3944018855127 L 679 414.06331924989547 L 680 412.72997293805224 L 681 411.394613151796 L 682 410.0574904707673 L 683 408.71885580541283 L 684 407.3789603499031 L 685 406.03805553499456 L 686 404.6963929808499 L 687 403.35422444982095 L 688 402.01180179920624 L 689 400.6693769339895 L 690 399.3272017595699 L 691 397.9855281344925 L 692 396.64460782318645 L 693 395.3046924487226 L 694 393.96603344559543 L 695 392.62888201254185 L 696 391.29348906540395 L 697 389.9601051900452 L 698 388.6289805953273 L 699 387.300365066159 L 700 385.97450791662413 L 701 384.6516579431978 L 702 383.33206337806024 L 703 382.0159718425155 L 704 380.7036303005259 L 705 379.39528501236896 L 706 378.09118148842754 L 707 376.7915644431191 L 708 375.49667774897546 L 709 374.2067643908803 L 710 372.922066420473 L 711 371.64282491072834 L 712 370.3692799107182 L 713 369.1016704005675 L 714 367.840234246609 L 715 366.5852081567479 L 716 365.3368276360446 L 717 364.0953269425208 L 718 362.86093904320205 L 719 361.6338955704014 L 720 360.41442677825404 L 721 359.2027614995093 L 722 357.9991271025912 L 723 356.8037494489324 L 724 355.61685285059156 L 725 354.43866002816145 L 726 353.2693920689752 L 727 352.1092683856195 L 728 350.9585066747618 L 729 349.81732287630024 L 730 348.68593113284174 L 731 347.5645437495189 L 732 346.45337115415066 L 733 345.3526218577557 L 734 344.262502415426 L 735 343.18321738756583 L 736 342.11496930150685 L 737 341.0579586135036 L 738 340.01238367111864 L 739 338.9784406760016 L 740 337.95632364707285 L 741 336.9462243841158 L 742 335.94833243178545 L 743 334.9628350440411 L 744 333.9899171490074 L 745 333.02976131427323 L 746 332.0825477126326 L 747 331.1484540882759 L 748 330.22765572343565 L 749 329.32032540549517 L 750 328.42663339456504 L 751 327.54674739153387 L 752 326.6808325065996 L 753 325.82905122828595 L 754 324.99156339295234 L 755 324.1685261548001 L 756 323.36009395638257 L 757 322.56641849962466 L 758 321.78764871735524 L 759 321.0239307453605 L 760 320.2754078949611 L 761 319.54222062612087 L 762 318.8245065210883 L 763 318.12240025858034 L 764 317.4360335885093 L 765 316.7655353072603 L 766 316.1110312335231 L 767 315.47264418468137 L 768 314.850493953767 L 769 314.2446972869802 L 770 313.6553678617829 L 771 313.08261626556657 L 772 312.52654997490083 L 773 311.9872733353656 L 774 311.4648875419705 L 775 310.95949062016587 L 776 310.4711774074481 L 777 310.0000395355637 L 778 309.5461654133142 L 779 309.10964020996704 L 780 308.6905458392727 L 781 308.28896094409424 L 782 307.9049608816498 L 783 307.5386177093717 L 784 307.1900001713854 L 785 306.8591736856091 L 786 306.5462003314784 L 787 306.2511388382971 L 788 305.9740445742167 L 789 305.7149695358464 L 790 305.4739623384964 L 791 305.25106820705463 L 792 305.0463289675008 L 793 304.85978303905773 L 794 304.6914654269818 L 795 304.5414077159943 L 796 304.4096380643546 L 797 304.29618119857645 L 798 304.2010584087877 L 799 304.12428754473535 L 800 304.0658830124363 L 801 304.0258557714738 L 802 304.00421333294094 L 803 304.00095975803106 L 804 304.0160956572761 L 805 304.0496181904316 L 806 304.1015210670099 L 807 304.17179454746037 L 808 304.2604254449972 L 809 304.36739712807395 L 810 304.49268952350417 L 811 304.63627912022827 L 812 304.79813897372554 L 813 304.97823871107 L 814 305.17654453663 L 815 305.39301923841003 L 816 305.6276221950332 L 817 305.8803093833643 L 818 306.1510333867704 L 819 306.43974340401866 L 820 306.746385258809 L 821 307.07090140994063 L 822 307.41323096210925 L 823 307.77330967733417 L 824 308.15106998701265 L 825 308.5464410045987 L 826 308.95934853890566 L 827 309.38971510802736 L 828 309.83745995387807 L 829 310.30249905734644 L 830 310.78474515406174 L 831 311.28410775076907 L 832 311.80049314231024 L 833 312.3338044292077 L 834 312.88394153584727 L 835 313.45080122925776 L 836 314.03427713848225 L 837 314.6342597745388 L 838 315.25063655096596 L 839 315.8832918049491 L 840 316.53210681902533 L 841 317.19695984336 L 842 317.8777261185936 L 843 318.57427789925225 L 844 319.2864844777195 L 845 320.01421220876335 L 846 320.7573245346148 L 847 321.5156820105928 L 848 322.28914233127097 L 849 323.07756035718114 L 850 323.8807881420488 L 851 324.6986749605553 L 852 325.5310673366206 L 853 326.37780907220406 L 854 327.2387412766142 L 855 328.1137023963248 L 856 329.00252824529036 L 857 329.9050520357549 L 858 330.82110440955057 L 859 331.7505134698771 L 860 332.6931048135582 L 861 333.6487015637682 L 862 334.6171244032229 L 863 335.59819160782865 L 864 336.5917190807824 L 865 337.5975203871178 L 866 338.61540678868903 L 867 339.645187279588 L 868 340.6866686219864 L 869 341.7396553823965 L 870 342.80394996834434 L 871 343.8793526654474 L 872 344.9656616748918 L 873 346.0626731512989 L 874 347.17018124097746 L 875 348.2879781205511 L 876 349.41585403595735 L 877 350.5535973418072 L 878 351.7009945411004 L 879 352.85783032528815 L 880 354.02388761467546 L 881 355.19894759915627 L 882 356.38278977927314 L 883 357.5751920075937 L 884 358.7759305303962 L 885 359.9847800296573 L 886 361.201513665333 L 887 362.42590311792435 L 888 363.6577186313224 L 889 364.8967290559207 L 890 366.14270189199163 L 891 367.39540333331416 L 892 368.6545983110477 L 893 369.92005053784226 L 894 371.19152255217824 L 895 372.46877576292576 L 896 373.751570494116 L 897 375.03966602991665 L 898 376.33282065980137 L 899 377.6307917239077 L 900 378.93333565857137 L 901 380.24020804203104 L 902 381.5511636402942 L 903 382.86595645315447 L 904 384.18433976035436 L 905 385.50606616788184 L 906 386.83088765439356 L 907 388.1585556177558 L 908 389.4888209216951 L 909 390.8214339425481 L 910 392.1561446161036 L 911 393.4927024845269 L 912 394.8308567433575 L 913 396.17035628857366 L 914 397.5109497637109 L 915 398.8523856070297 L 916 400.19441209871985 L 917 401.5367774081368 L 918 402.87922964105684 L 919 404.2215168869452 L 920 405.5633872662269 L 921 406.9045889775514 L 922 408.24487034504364 L 923 409.58397986553086 L 924 410.9216662557367 L 925 412.2576784994341 L 926 413.5917658945495 L 927 414.9236781002059 L 928 416.2531651836996 L 929 417.57997766740027 L 930 418.9038665755642 L 931 420.22458348105613 L 932 421.54188055196516 L 933 422.85551059811087 L 934 424.1652271174285 L 935 425.47078434222425 L 936 426.7719372852944 L 937 428.06844178589677 L 938 429.360054555567 L 939 430.64653322377154 L 940 431.92763638338903 L 941 433.20312363600954 L 942 434.47275563704557 L 943 435.73629414064493 L 944 436.99350204439696 L 945 438.2441434338255 L 946 439.48798362665764 L 947 440.72478921686206 L 948 441.9543281184467 L 949 443.1763696090108 L 950 444.39068437303916 L 951 445.59704454493317 L 952 446.79522375176975 L 953 447.98499715577987 L 954 449.16614149653975 L 955 450.33843513286524 L 956 451.5016580844029 L 957 452.65559207290846 L 958 453.8000205632079 L 959 454.9347288038292 L 960 456.0595038673007 L 961 457.17413469010694 L 962 458.278412112294 L 963 459.3721289167193 L 964 460.455079867935 L 965 461.52706175070085 L 966 462.58787340811654 L 967 463.63731577937 L 968 464.6751919370901 L 969 465.70130712430034 L 970 466.715468790965 L 971 467.71748663012045 L 972 468.7071726135871 L 973 469.684341027252 L 974 470.6488085059187 L 975 471.60039406771494 L 976 472.53891914805416 L 977 473.46420763314325 L 978 474.3760858930298 L 979 475.27438281418426 L 980 476.1589298316085 L 981 477.0295609604675 L 982 477.8861128272366 L 983 478.7284247003577 L 984 479.5563385204012 L 985 480.36969892972496 L 986 481.168353301628 L 987 481.95215176899023 L 988 482.7209472523952 L 989 483.4745954877292 L 990 484.2129550532527 L 991 484.93588739613796 L 992 485.64325685846825 L 993 486.33493070269435 L 994 487.010779136542 L 995 487.67067533736815 L 996 488.3144954759589 L 997 488.9421187397657 L 998 489.55342735557605 L 999 490.1483066116135 L 1000 490.72664487906343 L 1001 491.28833363301993 L 1002 491.8332674728506 L 1003 492.36134414197454 L 1004 492.8724645470515 L 1005 493.3665327765759 L 1006 493.84345611887534 L 1007 494.3031450795071 L 1008 494.74551339805225 L 1009 495.1704780643024 L 1010 495.57795933383636 L 1011 495.9678807429841 L 1012 496.3401691231751 L 1013 496.6947546146686 L 1014 497.03157067966276 L 1015 497.35055411478015 L 1016 497.6516450629282 L 1017 497.9347870245308 L 1018 498.19992686813123 L 1019 498.4470148403615 L 1020 498.676004575279 L 1021 498.88685310306687 L 1022 499.0795208580973 L 1023 499.25397168635595 L 1024 499.4101728522264 L 1025 499.54809504463276 L 1026 499.66771238254 L 1027 499.7690024198105 L 1028 499.85194614941605 L 1029 499.9165280070045 L 1030 499.96273587382046 L 1031 499.9905610789793 L 1032 499.99999840109416 L 1033 499.991046069256 L 1034 499.9637057633658 L 1035 499.9179826138191 L 1036 499.8538852005436 L 1037 499.7714255513889 L 1038 499.6706191398698 L 1039 499.55148488226234 L 1040 499.41404513405433 L 1041 499.2583256857503 L 1042 499.08435575803213 L 1043 498.8921679962755 L 1044 498.6817984644241 L 1045 498.45328663822255 L 1046 498.2066753978082 L 1047 497.9420110196654 L 1048 497.65934316794096 L 1049 497.3587248851254 L 1050 497.04021258209923 L 1051 496.7038660275473 L 1052 496.3497483367435 L 1053 495.9779259597074 L 1054 495.58846866873444 L 1055 495.1814495453034 L 1056 494.7569449663628 L 1057 494.31503458999873 L 1058 493.85580134048706 L 1059 493.37933139273264 L 1060 492.8857141560988 L 1061 492.3750422576295 L 1062 491.84741152466813 L 1063 491.3029209668755 L 1064 490.7416727576506 L 1065 490.16377221495776 L 1066 489.5693277815641 L 1067 488.9584510046902 L 1068 488.33125651507794 L 1069 487.68786200548055 L 1070 487.0283882085773 L 1071 486.35295887431863 L 1072 485.6617007467036 L 1073 484.9547435399972 L 1074 484.2322199143893 L 1075 483.49426545110083 L 1076 482.7410186269425 L 1077 481.97262078832927 L 1078 481.18921612475674 L 1079 480.3909516417444 L 1080 479.5779771332497 L 1081 478.75044515355995 L 1082 477.9085109886646 L 1083 477.05233262711687 L 1084 476.18207073038633 L 1085 475.29788860271196 L 1086 474.3999521604572 L 1087 473.48842990097626 L 1088 472.56349287099556 L 1089 471.625314634517 L 1090 470.67407124024885 L 1091 469.7099411885699 L 1092 468.73310539803435 L 1093 467.7437471714221 L 1094 466.7420521613428 L 1095 465.7282083353974 L 1096 464.7024059409066 L 1097 463.66483746921085 L 1098 462.6156976195493 L 1099 461.55518326252536 L 1100 460.4834934031629 L 1101 459.4008291435638 L 1102 458.30739364517075 L 1103 457.20339209064497 L 1104 456.08903164536264 L 1105 454.96452141854115 L 1106 453.8300724239996 L 1107 452.6858975405621 L 1108 451.5322114721117 L 1109 450.3692307073006 L 1110 449.1971734789262 L 1111 448.01625972298024 L 1112 446.8267110373781 L 1113 445.6287506403752 L 1114 444.42260332868074 L 1115 443.20849543527476 L 1116 441.9866547869366 L 1117 440.75731066149376 L 1118 439.5206937447975 L 1119 438.27703608743485 L 1120 437.0265710611847 L 1121 435.76953331522543 L 1122 434.5061587321035 L 1123 433.23668438346954 L 1124 431.9613484855925 L 1125 430.68039035465813 L 1126 429.394050361862 L 1127 428.1025698883032 L 1128 426.8061912796897 L 1129 425.5051578008622 L 1130 424.19971359014556 L 1131 422.89010361353684 L 1132 421.5765736187367 L 1133 420.25937008903543 L 1134 418.9387401970603 L 1135 417.61493175839456 L 1136 416.2881931850735 L 1137 414.95877343897104 L 1138 413.62692198508194 L 1139 412.2928887447097 L 1140 410.95692404856953 L 1141 409.6192785898128 L 1142 408.2802033769853 L 1143 406.9399496869257 L 1144 405.5987690176134 L 1145 404.25691304097495 L 1146 402.9146335556579 L 1147 401.57218243978105 L 1148 400.2298116036695 L 1149 398.8877729425844 L 1150 397.5463182894537 L 1151 396.2056993676171 L 1152 394.86616774358936 L 1153 393.52797477985416 L 1154 392.19137158769695 L 1155 390.8566089800826 L 1156 389.52393742459134 L 1157 388.1936069964183 L 1158 386.8658673314476 L 1159 385.5409675794075 L 1160 384.21915635711787 L 1161 382.9006817018377 L 1162 381.5857910247203 L 1163 380.2747310643879 L 1164 378.96774784062967 L 1165 377.66508660823763 L 1166 376.3669918109837 L 1167 375.07370703575094 L 1168 373.7854749668236 L 1169 372.502537340348 L 1170 371.22513489897096 L 1171 369.9535073466642 L 1172 368.6878933037444 L 1173 367.4285302620955 L 1174 366.175654540605 L 1175 364.9295012408171 L 1176 363.69030420281655 L 1177 362.45829596134917 L 1178 361.23370770218634 L 1179 360.01676921874326 L 1180 358.8077088689583 L 1181 357.60675353244164 L 1182 356.4141285679013 L 1183 355.23005777085575 L 1184 354.054763331637 L 1185 352.888465793698 L 1186 351.73138401222724 L 1187 350.58373511308093 L 1188 349.4457344520392 L 1189 348.31759557439494 L 1190 347.1995301748819 L 1191 346.09174805795004 L 1192 344.9944570983971 L 1193 343.9078632023592 L 1194 342.83217026867356 L 1195 341.76758015061716 L 1196 340.7142926180286 L 1197 339.6725053198218 L 1198 338.64241374689686 L 1199 337.6242111954567 L 1200 336.6180887307344 L 1201 335.6242351511414 L 1202 334.64283695283774 L 1203 333.6740782947371 L 1204 332.7181409639496 L 1205 331.775204341669 L 1206 330.84544536951233 L 1207 329.9290385163168 L 1208 329.02615574540044 L 1209 328.1369664822939 L 1210 327.261637582947 L 1211 326.40033330241965 L 1212 325.55321526405766 L 1213 324.72044242916564 L 1214 323.9021710671772 L 1215 323.09855472633154 L 1216 322.3097442048598 L 1217 321.53588752268814 L 1218 320.77712989366177 L 1219 320.0336136982953 L 1220 319.3054784570562 L 1221 318.5928608041824 L 1222 317.8958944620437 L 1223 317.21471021604896 L 1224 316.5494358901039 L 1225 315.9001963226252 L 1226 315.2671133431147 L 1227 314.650305749298 L 1228 314.0498892848319 L 1229 313.4659766175861 L 1230 312.8986773184997 L 1231 312.3480978410216 L 1232 311.8143415011335 L 1233 311.29750845796366 L 1234 310.79769569499115 L 1235 310.3149970018477 L 1236 309.8495029567178 L 1237 309.40130090934156 L 1238 308.97047496462426 L 1239 308.55710596685304 L 1240 308.1612714845275 L 1241 307.78304579580345 L 1242 307.4224998745548 L 1243 307.0797013770553 L 1244 306.75471462928306 L 1245 306.44760061484965 L 1246 306.15841696355636 L 1247 305.8872179405805 L 1248 305.63405443629216 L 1249 305.3989739567046 L 1250 305.1820206145602 L 1251 304.98323512105225 L 1252 304.8026547781859 L 1253 304.6403134717781 L 1254 304.49624166509926 L 1255 304.3704663931566 L 1256 304.2630112576213 L 1257 304.17389642239937 L 1258 304.1031386098479 L 1259 304.05075109763754 L 1260 304.0167437162604 L 1261 304.00112284718574 L 1262 304.0038914216624 L 1263 304.0250489201686 L 1264 304.0645913725097 L 1265 304.1225113585629 L 1266 304.19879800966993 L 1267 304.29343701067626 L 1268 304.40641060261754 L 1269 304.53769758605205 L 1270 304.6872733250385 L 1271 304.8551097517594 L 1272 305.0411753717876 L 1273 305.24543526999634 L 1274 305.4678511171111 L 1275 305.7083811769019 L 1276 305.9669803140155 L 1277 306.2436000024443 L 1278 306.538188334633 L 1279 306.8506900312186 L 1280 307.18104645140363 L 1281 307.52919560396 L 1282 307.8950721588617 L 1283 308.2786074595443 L 1284 308.67972953578726 L 1285 309.0983631172204 L 1286 309.53442964744755 L 1287 309.9878472987879 L 1288 310.45853098763087 L 1289 310.9463923904019 L 1290 311.4513399601365 L 1291 311.973278943659 L 1292 312.5121113993629 L 1293 313.067736215589 L 1294 313.64004912960024 L 1295 314.2289427471453 L 1296 314.8343065626119 L 1297 315.45602697976256 L 1298 316.0939873330512 L 1299 316.7480679095154 L 1300 317.4181459712403 L 1301 318.10409577839056 L 1302 318.80578861280475 L 1303 319.52309280215025 L 1304 320.25587374463066 L 1305 321.00399393424425 L 1306 321.7673129865867 L 1307 322.5456876651942 L 1308 323.33897190842157 L 1309 324.1470168568509 L 1310 324.969670881225 L 1311 325.8067796108998 L 1312 326.65818596281326 L 1313 327.5237301709608 L 1314 328.40324981637576 L 1315 329.2965798576073 L 1316 330.2035526616902 L 1317 331.1239980356011 L 1318 332.05774325819533 L 1319 333.00461311261796 L 1320 333.96442991918235 L 1321 334.9370135687129 L 1322 335.922181556342 L 1323 336.91974901575657 L 1324 337.9295287538884 L 1325 338.9513312860411 L 1326 339.9849648714466 L 1327 341.03023554924494 L 1328 342.0869471748817 L 1329 343.154901456913 L 1330 344.23389799421676 L 1331 345.32373431359633 L 1332 346.42420590777516 L 1333 347.53510627377227 L 1334 348.6562269516526 L 1335 349.78735756364426 L 1336 350.92828585361593 L 1337 352.07879772690694 L 1338 353.2386772905007 L 1339 354.4077068935388 L 1340 355.58566716816193 L 1341 356.77233707067455 L 1342 357.96749392302326 L 1343 359.1709134545827 L 1344 360.3823698442396 L 1345 361.6016357627678 L 1346 362.82848241548726 L 1347 364.06267958519567 L 1348 365.3039956753705 L 1349 366.552197753627 L 1350 367.8070515954278 L 1351 369.06832172803524 L 1352 370.3357714746977 L 1353 371.60916299906194 L 1354 372.8882573498027 L 1355 374.1728145054623 L 1356 375.4625934194904 L 1357 376.7573520654752 L 1358 378.0568474825614 L 1359 379.3608358210408 L 1360 380.66907238811024 L 1361 381.98131169378865 L 1362 383.2973074969829 L 1363 384.6168128516948 L 1364 385.9395801533605 L 1365 387.26536118531374 L 1366 388.59390716536194 L 1367 389.9249687924725 L 1368 391.2582962935525 L 1369 392.5936394703187 L 1370 393.9307477462474 L 1371 395.2693702135947 L 1372 396.6092556804795 L 1373 397.95015271801947 L 1374 399.29180970751173 L 1375 400.63397488764787 L 1376 401.9763964017586 L 1377 403.3188223450736 L 1378 404.66100081199113 L 1379 406.0026799433485 L 1380 407.34360797368294 L 1381 408.6835332784756 L 1382 410.0222044213684 L 1383 411.3593702013467 L 1384 412.6947796998754 L 1385 414.0281823279858 L 1386 415.35932787329716 L 1387 416.68796654696934 L 1388 418.0138490305754 L 1389 419.3367265228862 L 1390 420.6563507865579 L 1391 421.97247419471336 L 1392 423.2848497774098 L 1393 424.5932312679811 L 1394 425.89737314925156 L 1395 427.197030699606 L 1396 428.49196003891177 L 1397 429.78191817428285 L 1398 431.06666304567733 L 1399 432.34595357131974 L 1400 433.61954969294015 L 1401 434.8872124208212 L 1402 436.14870387864306 L 1403 437.40378734812293 L 1404 438.6522273134336 L 1405 439.89378950539844 L 1406 441.1282409454516 L 1407 442.3553499893566 L 1408 443.5748863706742 L 1409 444.7866212439718 L 1410 445.99032722776633 L 1411 447.1857784471911 L 1412 448.37275057638334 L 1413 449.5510208805769 L 1414 450.7203682578994 L 1415 451.8805732808612 L 1416 453.0314182375314 L 1417 454.1726871723911 L 1418 455.3041659268573 L 1419 456.4256421794704 L 1420 457.53690548573445 L 1421 458.63774731760907 L 1422 459.7279611026383 L 1423 460.80734226271437 L 1424 461.8756882524665 L 1425 462.9327985972683 L 1426 463.97847493085715 L 1427 465.0125210325571 L 1428 466.03474286409994 L 1429 467.04494860603637 L 1430 468.04294869372995 L 1431 469.02855585293037 L 1432 470.00158513491436 L 1433 470.9618539511913 L 1434 471.909182107766 L 1435 472.8433918389523 L 1436 473.76430784073005 L 1437 474.6717573036415 L 1438 475.5655699452188 L 1439 476.4455780419364 L 1440 477.3116164606861 L 1441 478.16352268976283 L 1442 479.0011368693604 L 1443 479.824301821569 L 1444 480.63286307986965 L 1445 481.4266689181196 L 1446 482.2055703790239 L 1447 482.9694213020872 L 1448 483.71807835103994 L 1449 484.4514010407366 L 1450 485.16925176351674 L 1451 485.87149581502734 L 1452 486.55800141949993 L 1453 487.22863975447837 L 1454 487.8832849749921 L 1455 488.521814237171 L 1456 489.14410772129736 L 1457 489.75004865428906 L 1458 490.339523331613 L 1459 490.9124211386212 L 1460 491.4686345713075 L 1461 492.00805925648103 L 1462 492.5305939713513 L 1463 493.0361406625231 L 1464 493.52460446439574 L 1465 493.995893716965 L 1466 494.4499199830223 L 1467 494.886598064751 L 1468 495.3058460197128 L 1469 495.70758517622477 L 1470 496.09174014812163 L 1471 496.4582388489022 L 1472 496.8070125052565 L 1473 497.1379956699707 L 1474 497.45112623420835 L 1475 497.7463454391652 L 1476 498.02359788709543 L 1477 498.2828315517065 L 1478 498.5239977879222 L 1479 498.747051341011 L 1480 498.95195035507777 L 1481 499.1386563809181 L 1482 499.30713438323346 L 1483 499.45735274720533 L 1484 499.58928328442784 L 1485 499.7029012381972 L 1486 499.7981852881576 L 1487 499.87511755430137 L 1488 499.93368360032474 L 1489 499.97387243633653 L 1490 499.9956765209204 L 1491 499.99909176255005 L 1492 499.984117520357 L 1493 499.95075660425084 L 1494 499.89901527439184 L 1495 499.8289032400165 L 1496 499.74043365761514 L 1497 499.6336231284638 L 1498 499.5084916955083 L 1499 499.3650628396037 L 1500 499.20336347510784 L 1501 499.0234239448309 L 1502 498.8252780143418 L 1503 498.60896286563195 L 1504 498.37451909013794 L 1505 498.1219906811249 L 1506 497.8514250254308 L 1507 497.5628728945747 L 1508 497.25638843522927 L 1509 496.9320291590601 L 1510 496.58985593193415 L 1511 496.2299329624975 L 1512 495.8523277901277 L 1513 495.45711127225877 L 1514 495.044357571086 L 1515 494.6141441396486 L 1516 494.1665517072962 L 1517 493.7016642645399 L 1518 493.21956904729115 L 1519 492.7203565204925 L 1520 492.20412036114146 L 1521 491.6709574407125 L 1522 491.1209678069788 L 1523 490.55425466523826 L 1524 489.97092435894746 L 1525 489.371086349766 L 1526 488.75485319701636 L 1527 488.122340536562 L 1528 487.47366705910827 L 1529 486.80895448793035 L 1530 486.1283275560323 L 1531 485.4319139827399 L 1532 484.71984444973515 L 1533 483.9922525765335 L 1534 483.24927489541034 L 1535 482.49105082578063 L 1536 481.7177226480372 L 1537 480.92943547685155 L 1538 480.12633723394316 L 1539 479.30857862032286" stroke-linecap="round" stroke-linejoin="round" stroke-miterlimit="10" stroke-width="16"/></g></svg>